<svg width="3112" height="1074" viewBox="0 0 3112 1074" fill="none" xmlns="http://www.w3.org/2000/svg">
<path d="M311.005 917.536C217.48 925.301 147.723 884.242 94.2011 813.613C20.4832 716.333 -10.9739 606.425 3.39152 484.619C7.01146 453.933 18.5102 425.918 36.9337 401.004C63.1822 365.513 97.6632 345.789 142.929 347.163C174.25 348.118 205.072 352.103 235.785 358.615C271.907 366.269 298.554 385.392 315.555 417.77C333.664 452.251 351.776 486.94 357.431 526.042C362.094 558.286 355.39 566.717 322.797 568.683C294.818 570.369 266.862 573.717 238.595 570.785C223.854 569.257 218.585 565.051 220.001 549.13C223.798 506.452 208.261 468.377 187.05 432.427C177.965 417.028 169 418.74 160.359 433.981C133.917 480.613 127.56 530.278 134.264 582.858C145.2 668.619 173.702 747.65 224.014 818.137C257.761 865.422 273.618 863.717 298.88 811.499C313.686 780.892 331.259 750.89 325.707 714.246C323.851 701.996 331.969 696.127 344.459 696.111C375.914 696.068 406.647 700.826 437.103 708.371C448.953 711.303 452.223 718.456 449.5 729.088C437.336 776.604 423.459 823.326 399.194 866.664C379.253 902.273 355.133 927.742 311.005 917.536Z" fill="#0BC07D"/>
<path d="M1002.74 415.795C1009.06 380.412 1017.63 349.106 1036.67 321.424C1050.8 300.883 1069.27 290.689 1094.5 293.957C1098.38 294.459 1102.36 294.42 1106.15 295.276C1199.52 316.368 1196.4 313.901 1215.1 408.67C1229.3 480.623 1225.11 554.575 1234.07 627.234C1236.27 645.078 1239.71 662.546 1245.23 679.641C1256.06 713.211 1248.58 723.548 1212.78 724.632C1189.21 725.348 1165.92 722.617 1142.83 718.363C1132.42 716.451 1120.01 711.594 1127.66 698.73C1147.99 664.583 1138.26 629.028 1135.58 593.808C1130.09 521.659 1126.1 449.277 1107.8 378.763C1105.95 371.617 1107.19 361.7 1097.97 359.432C1087.9 356.954 1082.06 365.287 1077.78 372.5C1036.44 442.268 999.429 513.023 1019.02 598.842C1024.72 623.8 1026.6 649.622 1030.36 675.032C1031.82 684.901 1034.25 693.762 1040.37 702.762C1053.92 722.707 1041.95 746.615 1017.64 749.202C991.112 752.022 964.599 748.756 938.267 744.944C925.353 743.075 918.65 734.823 925.574 723.914C936.101 707.326 932.322 691.438 929.415 674.482C912.185 574.002 895.275 473.467 878.427 372.92C876.995 364.36 874.846 356.567 869.823 349.122C858.738 332.693 863.026 319.553 881.991 317.61C914.672 314.266 947.623 314.663 979.762 323.604C996.633 328.295 992.267 341.617 989.963 352.395C985.238 374.487 984.68 395.207 1002.74 415.795" fill="#0BC07D"/>
<path d="M2607.46 600.578C2521.37 609.68 2464.24 658.59 2411.6 714.748C2404.49 722.33 2396.44 732.85 2406.53 743.593C2416.38 754.08 2427.31 746.475 2436.33 741.398C2480.6 716.462 2520.52 685.332 2559.54 653.071C2576.28 639.225 2592.57 624.835 2607.46 600.578V600.578ZM2559.63 745.899C2538.22 749.795 2526.74 763.016 2514.15 774.457C2499.73 787.568 2486.14 801.807 2468.75 811.125C2435.6 828.867 2406.17 821.565 2386.14 789.739C2371.63 766.685 2358.73 742.627 2345.12 719.021C2332.57 697.28 2334.19 676.336 2347.21 655.098C2372.08 614.584 2411.05 591.793 2451.97 571.762C2502.35 547.104 2557.18 537.302 2611.91 528.689C2630.28 525.798 2636 518.499 2634.98 501.716C2633.84 483.148 2623.85 474.937 2605.91 476.211C2563.69 479.203 2521.81 484.547 2482.76 502.041C2449.86 516.785 2446.48 516.746 2424.13 488.376C2414.5 476.155 2405.28 463.462 2397.33 450.124C2390.31 438.357 2394.38 425.906 2407.87 425.565C2459.93 424.25 2508.1 402.326 2560.13 400.028C2604.72 398.062 2639.02 408.571 2662.59 449.399C2676.49 473.51 2696.01 494.417 2713.04 516.729C2724.77 532.083 2727.29 548.095 2721.33 567.109C2697.6 642.792 2675.04 718.838 2651.87 794.693C2647.55 808.839 2643.27 822.658 2643.37 837.884C2643.47 854.182 2634.46 863.723 2617.67 856.98C2592.32 846.796 2567.93 834.435 2546.41 817.122C2536.34 809.01 2532.13 801.068 2543.36 790.532C2555.59 779.07 2557.67 763.816 2559.63 745.899" fill="#0BC07D"/>
<path d="M726.451 659.323C724.672 593.953 714.532 530.767 677.375 474.695C665.472 456.735 650.314 443.477 627.033 447.845C604.371 452.098 599.52 471.817 595.999 490.064C577.874 584.086 607.317 666.635 659.758 743.108C667.456 754.328 678.574 763.297 693.373 759.798C707.668 756.42 714.239 744.438 717.963 731.024C724.467 707.574 726.849 683.651 726.451 659.323V659.323ZM830.157 635.128C828.593 682.394 824.272 724.777 804.948 764.17C790.254 794.12 767.907 811.157 732.524 808.606C707.574 806.802 682.608 809.331 657.73 812.101C621.745 816.113 590.153 805.164 567.662 777.304C496.227 688.84 467.779 588.905 492.225 476.364C496.376 457.261 505.49 439.95 516.677 423.797C530.713 403.531 548.802 390.109 574.409 389.089C604.869 387.876 634.941 384.012 664.903 378.262C711.448 369.327 744.958 390.294 770.736 426.835C815.778 490.665 826.162 564.085 830.157 635.128" fill="#0BC07D"/>
<path d="M1488 395.24C1488 385.121 1488.31 374.989 1487.89 364.89C1487.58 357.23 1488.05 348.074 1479.44 344.691C1470.12 341.026 1462.7 346.987 1457.1 353.692C1430.48 385.552 1414.38 422.129 1408.5 463.194C1407.12 472.884 1409.7 476.924 1420.81 476.89C1464.22 476.75 1487.07 455.056 1488.01 411.574C1488.13 406.131 1488.03 400.683 1488 395.24V395.24ZM1311.62 489.29C1313.02 439.543 1322.37 383.047 1356.32 333.731C1391.11 283.195 1436.36 268.255 1495.21 285.789C1549.48 301.948 1588.42 329.956 1589 393.84C1589.24 420.273 1592.31 446.493 1586.53 472.699C1583.2 487.79 1575.6 496.436 1559.2 500.026C1516.45 509.377 1473.73 518.764 1430.12 522.532C1415.52 523.793 1411.9 528.801 1413.18 542.706C1416.14 574.709 1421.45 606.058 1435.16 635.312C1445.05 656.413 1457.58 659.575 1475.83 645.052C1501.6 624.539 1519.42 598.287 1525.1 565.428C1528.15 547.755 1536.23 545.041 1552.17 550.825C1625.33 577.36 1616.38 574.387 1581.72 632.844C1581.32 633.512 1580.85 634.143 1580.39 634.773C1507.99 732.98 1506.04 728.577 1390.58 684.697C1363.25 674.31 1349.31 650.021 1337.59 624.953C1320.37 588.132 1311.69 544.779 1311.62 489.29" fill="#0BC07D"/>
<path d="M1783.81 569.752C1783.72 590.073 1782.96 610.456 1789.28 630.069C1795.6 649.68 1810.7 656.52 1827.4 644.42C1857.47 622.61 1881.8 595.102 1891.91 558.314C1899.92 529.114 1907.3 524.267 1934.1 537.459C1950.14 545.36 1965.37 555.018 1980.56 564.529C1992.94 572.29 1995.48 583.163 1984.4 593.442C1961.21 614.951 1945.56 641.984 1927.02 666.991C1891.91 714.365 1832.42 727.036 1778.06 704.168C1705.5 673.648 1680.97 615.679 1681.7 543.217C1682.37 476.705 1691.7 411.331 1717.87 349.36C1722.7 337.919 1727.91 326.473 1734.43 315.955C1761.32 272.621 1790.22 261.357 1839.71 274.376C1872.42 282.98 1902.79 296.733 1931.33 314.967C1965.29 336.667 1979.82 366.115 1972.53 406.297C1969.21 424.599 1967.45 443.242 1966.05 461.812C1964.57 481.277 1956.15 487.167 1936.7 482.366C1914.61 476.914 1892.4 472.744 1874.38 457.628C1864.88 449.665 1861.74 442.441 1870.82 430.232C1889.48 405.152 1886.29 375.486 1881.45 347.125C1878.55 330.116 1861.81 325.657 1846.49 335.635C1833.41 344.15 1827.14 357.688 1821.37 371.407C1794.72 434.88 1786.02 501.718 1783.81 569.752" fill="#0BC07D"/>
<path d="M2083.14 319.878C2090.15 320.59 2097.15 321.225 2104.14 322.02C2144.12 326.573 2144.43 326.622 2149.51 287.544C2151.76 270.182 2155.3 253.349 2147.27 235.286C2140.51 220.087 2148.67 209.607 2167.24 211.798C2207.29 216.528 2244.61 229.806 2280.35 247.897C2294.53 255.082 2296.61 263.548 2282.84 273.879C2270.27 283.305 2260.64 293.515 2257.39 311.015C2253.18 333.692 2250.7 349.531 2281.68 350.651C2294.45 351.115 2325.49 400.961 2324.96 414.195C2324.36 429.075 2308.58 439.938 2293.73 435.687C2239.11 420.055 2239.34 420.096 2229.58 476.661C2216.61 551.81 2203.34 626.911 2189.97 701.986C2188.01 712.974 2189.12 723.397 2191.06 734.29C2195.08 756.941 2186.3 766.851 2164.57 761.615C2134.78 754.429 2108.08 739.63 2083.51 721.252C2077.59 716.822 2076.28 711.508 2079.85 705.041C2106.42 656.898 2101.51 602.195 2111.7 550.667C2119.99 508.733 2123.92 465.956 2130.5 423.663C2132.31 412.037 2132.13 403.115 2117.55 403.27C2083.86 403.63 2070.79 378.471 2058.03 354.509C2046.87 333.543 2059.03 317.836 2083.14 319.878" fill="#0BC07D"/>
<path d="M2936.18 617.717C2961.47 598.25 2986.42 578.332 3012.13 559.43C3047.29 533.587 3055.15 534.835 3083.18 568.75C3093.11 580.76 3102.39 593.259 3108.81 607.632C3114.23 619.786 3111.42 628.01 3097.27 628.241C3080.49 628.517 3067.74 637.101 3054.78 645.731C3002.19 680.767 2949.77 716.063 2896.98 750.797C2886 758.019 2878.59 766.73 2874.75 779.335C2861.22 823.745 2837.94 865.312 2836.51 913.244C2836.04 929.093 2825.1 933.166 2811.94 929.164C2779.8 919.407 2752.98 901.025 2731.3 875.507C2725.02 868.111 2720.52 858.972 2728 850.058C2762.48 809.02 2767.83 756.24 2785.48 708.522C2803.81 658.961 2819.07 608.274 2835.92 558.165C2841.67 541.048 2844.19 523.487 2845.85 505.609C2847.9 483.545 2857.08 476.269 2878.61 481.301C2909.54 488.527 2936.55 503.923 2960.73 524.35C2970.01 532.188 2972.56 540.175 2963.02 549.788C2945.28 567.661 2939.08 591.179 2931.91 614.181C2931.74 616.169 2930.67 619.128 2931.57 619.941C2933.69 621.86 2935.17 619.678 2936.18 617.717" fill="#0BC07D"/>
<path d="M1799.93 30.5267C1799.93 30.5267 1739.5 283.174 1544.38 238.881C1541.01 238.116 1539.45 235.753 1541.16 232.306C1549.89 214.693 1564.34 179.694 1613.49 138.882C1623.07 130.933 1615.56 132.597 1611.62 134.917C1567.12 161.111 1548.17 184.673 1534.54 214.711C1532.07 220.176 1529.24 221.092 1530.85 211.575C1553.7 76.0564 1692.02 66.1882 1799.93 30.5267Z" fill="#0BC07D"/>
<path d="M2798.55 1036.42C2811.87 1041.26 2823.89 1033.3 2805.6 1026.2C1796 634.316 571.999 872 282.909 1012.9C279.086 1014.76 270.017 1015.25 280.405 1027C291.616 1039.68 326.339 1066.72 342.5 1072.37C346.49 1073.77 350.872 1074 354.25 1074C357.629 1074 359.039 1070.62 361.3 1069.3C634.497 909.563 1822 681 2798.55 1036.42Z" fill="#0BC07D"/>
</svg>
